<?xml version="1.0" encoding="UTF-8" standalone="no"?>
<!-- Created with Inkscape (http://www.inkscape.org/) -->

<svg
   xmlns:dc="http://purl.org/dc/elements/1.1/"
   xmlns:cc="http://creativecommons.org/ns#"
   xmlns:rdf="http://www.w3.org/1999/02/22-rdf-syntax-ns#"
   xmlns:svg="http://www.w3.org/2000/svg"
   xmlns="http://www.w3.org/2000/svg"
   xmlns:sodipodi="http://sodipodi.sourceforge.net/DTD/sodipodi-0.dtd"
   xmlns:inkscape="http://www.inkscape.org/namespaces/inkscape"
   version="1.1"
   id="svg3713"
   width="300"
   height="355"
   viewBox="0 0 300 355"
   sodipodi:docname="logoBasic.svg"
   inkscape:version="0.92.3 (2405546, 2018-03-11)">
  <metadata
     id="metadata3719">
    <rdf:RDF>
      <cc:Work
         rdf:about="">
        <dc:format>image/svg+xml</dc:format>
        <dc:type
           rdf:resource="http://purl.org/dc/dcmitype/StillImage" />
        <dc:title></dc:title>
      </cc:Work>
    </rdf:RDF>
  </metadata>
  <defs
     id="defs3717">
    <inkscape:path-effect
       effect="skeletal"
       id="path-effect4596"
       is_visible="true"
       pattern="M 0,5 C 0,2.24 2.24,0 5,0 7.76,0 10,2.24 10,5 10,7.76 7.76,10 5,10 2.24,10 0,7.76 0,5 Z"
       copytype="single_stretched"
       prop_scale="-0.31622777"
       scale_y_rel="false"
       spacing="0"
       normal_offset="0"
       tang_offset="0"
       prop_units="false"
       vertical_pattern="false"
       fuse_tolerance="0" />
    <inkscape:path-effect
       effect="bspline"
       id="path-effect4594"
       is_visible="true"
       weight="33.333333"
       steps="2"
       helper_size="0"
       apply_no_weight="true"
       apply_with_weight="true"
       only_selected="false" />
    <inkscape:path-effect
       effect="skeletal"
       id="path-effect4590"
       is_visible="true"
       pattern="M 0,5 C 0,2.24 2.24,0 5,0 7.76,0 10,2.24 10,5 10,7.76 7.76,10 5,10 2.24,10 0,7.76 0,5 Z"
       copytype="single_stretched"
       prop_scale="-0.20462494"
       scale_y_rel="false"
       spacing="0"
       normal_offset="0"
       tang_offset="0"
       prop_units="false"
       vertical_pattern="false"
       fuse_tolerance="0" />
    <inkscape:path-effect
       effect="bspline"
       id="path-effect4588"
       is_visible="true"
       weight="33.333333"
       steps="2"
       helper_size="0"
       apply_no_weight="true"
       apply_with_weight="true"
       only_selected="false" />
    <inkscape:path-effect
       effect="skeletal"
       id="path-effect4584"
       is_visible="true"
       pattern="M 0,5 C 0,2.24 2.24,0 5,0 7.76,0 10,2.24 10,5 10,7.76 7.76,10 5,10 2.24,10 0,7.76 0,5 Z"
       copytype="single_stretched"
       prop_scale="0.42284121"
       scale_y_rel="false"
       spacing="0"
       normal_offset="0"
       tang_offset="0"
       prop_units="false"
       vertical_pattern="false"
       fuse_tolerance="0" />
    <inkscape:path-effect
       effect="bspline"
       id="path-effect4582"
       is_visible="true"
       weight="33.333333"
       steps="2"
       helper_size="0"
       apply_no_weight="true"
       apply_with_weight="true"
       only_selected="false" />
    <inkscape:path-effect
       effect="skeletal"
       id="path-effect4578"
       is_visible="true"
       pattern="M 0,5 C 0,2.24 2.24,0 5,0 7.76,0 10,2.24 10,5 10,7.76 7.76,10 5,10 2.24,10 0,7.76 0,5 Z"
       copytype="single_stretched"
       prop_scale="0.4352613"
       scale_y_rel="false"
       spacing="0"
       normal_offset="0"
       tang_offset="0"
       prop_units="false"
       vertical_pattern="false"
       fuse_tolerance="0" />
    <inkscape:path-effect
       effect="bspline"
       id="path-effect4576"
       is_visible="true"
       weight="33.333333"
       steps="2"
       helper_size="0"
       apply_no_weight="true"
       apply_with_weight="true"
       only_selected="false" />
    <inkscape:path-effect
       effect="skeletal"
       id="path-effect4572"
       is_visible="true"
       pattern="M 0,5 C 0,2.24 2.24,0 5,0 7.76,0 10,2.24 10,5 10,7.76 7.76,10 5,10 2.24,10 0,7.76 0,5 Z"
       copytype="single_stretched"
       prop_scale="0.28884807"
       scale_y_rel="false"
       spacing="0"
       normal_offset="0"
       tang_offset="0"
       prop_units="false"
       vertical_pattern="false"
       fuse_tolerance="0" />
    <inkscape:path-effect
       effect="bspline"
       id="path-effect4570"
       is_visible="true"
       weight="33.333333"
       steps="2"
       helper_size="0"
       apply_no_weight="true"
       apply_with_weight="true"
       only_selected="false" />
    <inkscape:path-effect
       effect="skeletal"
       id="path-effect4558"
       is_visible="true"
       pattern="M 0,5 C 0,2.24 2.24,0 5,0 7.76,0 10,2.24 10,5 10,7.76 7.76,10 5,10 2.24,10 0,7.76 0,5 Z"
       copytype="single_stretched"
       prop_scale="0.92004127"
       scale_y_rel="false"
       spacing="0"
       normal_offset="0"
       tang_offset="0"
       prop_units="false"
       vertical_pattern="false"
       fuse_tolerance="0" />
    <inkscape:path-effect
       effect="bspline"
       id="path-effect4556"
       is_visible="true"
       weight="33.333333"
       steps="2"
       helper_size="0"
       apply_no_weight="true"
       apply_with_weight="true"
       only_selected="false" />
    <inkscape:path-effect
       effect="skeletal"
       id="path-effect4538"
       is_visible="true"
       pattern="m -6.0839138,-2.0888481 c 0,-2.76 2.24,-5 5,-5 2.76,0 5,2.24 5,5 0,2.76000001 -2.24,5 -5,5 -2.76,0 -5,-2.23999999 -5,-5 z"
       copytype="single_stretched"
       prop_scale="1"
       scale_y_rel="false"
       spacing="0"
       normal_offset="0"
       tang_offset="0"
       prop_units="false"
       vertical_pattern="false"
       fuse_tolerance="0" />
    <inkscape:path-effect
       effect="skeletal"
       id="path-effect4530"
       is_visible="true"
       pattern="M 0,5 C 0,2.24 2.24,0 5,0 7.76,0 10,2.24 10,5 10,7.76 7.76,10 5,10 2.24,10 0,7.76 0,5 Z"
       copytype="single_stretched"
       prop_scale="0.90890538"
       scale_y_rel="false"
       spacing="0"
       normal_offset="0"
       tang_offset="0"
       prop_units="false"
       vertical_pattern="false"
       fuse_tolerance="0" />
  </defs>
  <sodipodi:namedview
     pagecolor="#ffffff"
     bordercolor="#666666"
     borderopacity="1"
     objecttolerance="10"
     gridtolerance="10"
     guidetolerance="10"
     inkscape:pageopacity="0"
     inkscape:pageshadow="2"
     inkscape:window-width="1920"
     inkscape:window-height="1017"
     id="namedview3715"
     showgrid="false"
     inkscape:zoom="1.4142136"
     inkscape:cx="331.15762"
     inkscape:cy="247.52619"
     inkscape:window-x="-8"
     inkscape:window-y="-8"
     inkscape:window-maximized="1"
     inkscape:current-layer="svg3713" />
  <path
     style="fill:#008b1f;stroke:none;stroke-width:0.79449254px;stroke-linecap:butt;stroke-linejoin:miter;stroke-opacity:1;fill-opacity:1"
     d="M 45.560675,40.434298 C 46.993217,39.033934 92.061672,78.887349 149.30157,132.0062 m 0.80978,1.07975 c 1.77519,3.50454 3.56781,7.05194 5.37527,10.63736 m -6.63949,-0.9244 c 2.5246,-2.64207 5.07441,-5.30613 7.64678,-7.98925 1.60607,-1.67522 3.20519,-3.34144 4.79663,-4.99796 m 0.87895,5.93934 c -4.22038,-2.4425 -8.39015,-4.86177 -12.50144,-7.253 m -0.68508,-0.49895 C 104.50344,87.420091 68.326297,53.261666 54.237405,38.652204 m 1.359756,0.308924 c -6.359771,1.382018 -9.89754,1.923114 -10.036491,1.473171 -0.138949,-0.449942 3.132388,-1.853785 9.245509,-4.0345 m 1.359754,0.308924 C 72.176854,49.381253 109.7834,82.099191 154.5382,122.40078 m -0.68509,-0.49895 c 4.12752,2.36567 8.30818,4.76775 12.53391,7.20184 m 0.87896,5.93933 c -1.58787,1.65967 -3.18516,3.32747 -4.79124,5.00271 -2.57236,2.6831 -5.12685,5.34309 -7.66059,7.97713 m -6.63949,-0.9244 c -1.7949,-3.59119 -3.56812,-7.14757 -5.31726,-10.66413 m 0.80978,1.07974 C 86.823682,84.007692 44.128135,41.834663 45.560675,40.434298"
     id="path4528"
     inkscape:connector-curvature="0" />
  <path
     style="fill:#008b1f;stroke:none;stroke-width:1px;stroke-linecap:butt;stroke-linejoin:miter;stroke-opacity:1;fill-opacity:1"
     d="m 143.22491,143.56291 c 0.43259,0.003 0.68659,4.25472 0.9992,11.119 0.29259,6.42475 0.68092,16.72301 2.4948,26.42074 0.0575,0.30738 0.11622,0.6136 0.1762,0.9187 1.8492,9.50927 5.31821,18.85146 7.48324,24.75869 2.30036,6.27649 3.70031,10.16309 3.30647,10.33414 -0.32442,0.14091 -2.38033,-3.4521 -5.17654,-9.56479 -2.68449,-5.86844 -6.46567,-14.99875 -8.44653,-24.97105 -0.0618,-0.31465 -0.12214,-0.63039 -0.18088,-0.94724 -1.88626,-10.17466 -1.90455,-20.32244 -1.70289,-26.93404 0.21037,-6.89702 0.68419,-11.13629 1.04693,-11.13415 z"
     id="path4568"
     inkscape:connector-curvature="0"
     inkscape:path-effect="#path-effect4570;#path-effect4572"
     inkscape:original-d="m 143.22491,143.56291 c -0.0772,13.23927 -0.15547,26.4776 -0.23471,39.71876 4.89942,11.27699 9.79762,22.55449 14.69462,33.83251"
     sodipodi:nodetypes="ccc" />
  <path
     style="fill:#008b1f;stroke:none;stroke-width:1px;stroke-linecap:butt;stroke-linejoin:miter;stroke-opacity:1;fill-opacity:1"
     d="m 168.87989,129.69715 c -0.0131,-0.34379 6.03035,-2.13138 15.78569,-1.62059 5.10426,0.27183 11.13793,1.38096 17.26648,4.06287 2.00546,0.88569 3.99888,1.88192 5.98675,2.98834 9.38709,5.22471 17.47451,12.34384 22.43453,17.01343 5.23188,4.92554 8.18299,8.24101 7.82302,8.66865 -0.41002,0.48712 -4.08849,-1.99637 -9.81648,-6.30242 -5.17348,-3.8892 -13.94378,-10.81523 -22.54625,-15.59366 -1.88871,-1.04912 -3.76284,-2.0005 -5.63997,-2.85812 -5.54663,-2.56016 -11.07893,-3.86319 -15.83428,-4.52125 -9.14473,-1.27249 -15.43251,-1.12876 -15.45949,-1.83725 z"
     id="path4574"
     inkscape:connector-curvature="0"
     inkscape:path-effect="#path-effect4576;#path-effect4578"
     inkscape:original-d="m 168.87989,129.69715 c 10.31218,-0.39361 20.62366,-0.78623 30.93443,-1.17786 12.78872,10.76283 25.5753,21.52571 38.36204,32.29056"
     sodipodi:nodetypes="ccc" />
  <path
     style="fill:#008b1f;stroke:none;stroke-width:1px;stroke-linecap:butt;stroke-linejoin:miter;stroke-opacity:1;fill-opacity:1"
     d="m 174.65537,214.28575 c -0.20612,-0.58751 3.59523,-2.34286 9.77007,-5.09727 5.79065,-2.58304 15.01194,-6.60378 22.739,-12.32071 0.29661,-0.21684 0.59251,-0.43661 0.88779,-0.65932 7.85137,-5.92193 14.80881,-13.75921 19.19869,-18.56861 4.71195,-5.16224 7.72238,-8.29159 8.21563,-7.90182 0.41844,0.33065 -1.73953,4.1113 -5.8916,9.79999 -3.97441,5.44526 -10.48796,13.58167 -18.97249,20.03659 -0.31216,0.2375 -0.62555,0.47173 -0.94019,0.7027 -8.46818,6.1467 -17.94391,9.69564 -24.18585,11.67721 -6.51339,2.06775 -10.64961,2.81989 -10.82105,2.33124 z"
     id="path4580"
     inkscape:connector-curvature="0"
     inkscape:path-effect="#path-effect4582;#path-effect4584"
     inkscape:original-d="m 174.65537,214.28575 c 11.81097,-4.14444 23.62191,-8.28821 35.43283,-12.43134 8.46116,-10.70735 16.91919,-21.41103 25.37835,-32.11639"
     sodipodi:nodetypes="ccc" />
  <path
     style="fill:#008b1f;stroke:none;stroke-width:1px;stroke-linecap:butt;stroke-linejoin:miter;stroke-opacity:1;fill-opacity:1"
     d="m 154.81415,148.02284 c -0.26727,0.13846 0.41753,1.92536 1.6409,4.7528 1.12495,2.59999 3.07625,6.8646 4.08993,11.01 0.10842,0.44338 0.20657,0.88391 0.29434,1.32251 0,0 0,0 0,0 0.81507,3.9037 0.53603,8.05242 0.3717,10.67377 -0.17511,2.79348 -0.27899,4.5143 0.009,4.56272 0.23689,0.0398 0.83221,-1.59103 1.37528,-4.38459 0.51968,-2.67328 1.06782,-6.88198 0.24408,-11.24848 0,0 0,0 0,0 -0.0924,-0.4703 -0.19727,-0.94144 -0.31438,-1.4137 -1.12697,-4.54479 -3.28176,-8.62575 -4.77355,-11.17905 -1.56383,-2.67662 -2.70584,-4.21606 -2.93763,-4.09598 z"
     id="path4586"
     inkscape:connector-curvature="0"
     inkscape:path-effect="#path-effect4588;#path-effect4590"
     inkscape:original-d="m 154.81415,148.02284 c 2.98025,5.75002 5.95855,11.49921 8.93682,17.25127 -0.84264,5.02307 -1.68618,10.04658 -2.53062,15.07052"
     sodipodi:nodetypes="ccc" />
  <path
     style="fill:#008b1f;stroke:none;stroke-width:1px;stroke-linecap:butt;stroke-linejoin:miter;stroke-opacity:1;fill-opacity:1"
     d="m 167.26598,135.043 c -0.16247,0.43389 1.7629,1.51547 4.95997,3.05225 2.91977,1.40349 7.84639,3.5827 11.51498,6.53004 0.41905,0.33666 0.82246,0.6819 1.21096,1.0371 0,0 0,0 0,0 3.26212,2.8477 5.35859,7.07559 6.71042,9.72704 1.45133,2.84662 2.36881,4.59676 2.79205,4.44911 0.34631,-0.12082 0.17656,-2.11399 -0.78618,-5.25691 -0.91528,-2.98797 -2.76625,-7.62598 -6.59355,-11.24686 0,0 0,0 0,-1e-5 -0.44266,-0.4028 -0.90152,-0.79161 -1.3763,-1.16691 -4.30969,-3.4066 -9.39699,-5.21892 -12.66415,-6.17932 -3.43586,-1.01 -5.62738,-1.3216 -5.7682,-0.94553 z"
     id="path4592"
     inkscape:connector-curvature="0"
     inkscape:path-effect="#path-effect4594;#path-effect4596"
     inkscape:original-d="m 167.26598,135.043 c 7.10881,2.66057 14.21668,5.32215 21.32359,7.98475 1.95594,5.60263 3.91084,11.20614 5.86479,16.81078"
     sodipodi:nodetypes="ccc" />
  <text
     xml:space="preserve"
     style="font-style:normal;font-weight:normal;font-size:31.36617279px;line-height:1.25;font-family:sans-serif;letter-spacing:0px;word-spacing:0px;fill:#008b1f;fill-opacity:1;stroke:none;stroke-width:0.7841543;"
     x="17.834333"
     y="287.41101"
     id="text4600"
     transform="scale(1.1682766,0.8559617)"><tspan
       sodipodi:role="line"
       id="tspan4598"
       x="17.834333"
       y="287.41101"
       style="stroke-width:0.7841543;fill:#008b1f;fill-opacity:1;">Basic Cleaning</tspan><tspan
       sodipodi:role="line"
       x="17.834333"
       y="326.61871"
       id="tspan4602"
       style="stroke-width:0.7841543;fill:#008b1f;fill-opacity:1;" /></text>
</svg>
